#!OML:ASF H:\Terrain\Patient Classification 1\Takeo\Monday\TakeoMonday.ASF
:FULLY-SPECIFIED
:DEGREES
1689
root 9.55429 17.1317 -3.19095 -7.24523 4.8239 1.40439
lowerback 7.02217 6.39947 3.37708
upperback 3.7693 8.73687 -3.16791
thorax 1.01437 4.50424 -5.6101
lowerneck -12.8916 5.88316 -0.0439709
upperneck 4.84447 7.58264 3.50167
head 3.74316 3.92705 1.72386
rclavicle 1.18774e-014 3.97569e-015
rhumerus 30.8517 49.1767 -88.2639
rradius 41.225
rwrist 26.0937
rhand -29.2609 11.6858
rfingers 7.12502
rthumb -2.60365 -18.2781
lclavicle 1.18774e-014 3.97569e-015
lhumerus 22.9186 24.7677 100.257
lradius 65.0446
lwrist 67.6485
lhand -15.8419 24.3834
lfingers 7.12502
lthumb 10.3527 54.1086
rfemur 8.07603 -16.9318 20.0165
rtibia 27.8023
rfoot -31.4762 -27.9153
rtoes 4.93066
lfemur -20.4982 -9.89936 -20.2703
ltibia 32.4153
lfoot -2.67481 -1.85598
ltoes -10.1377
1690
root 9.55489 17.1319 -3.19006 -7.24229 3.90301 1.24074
lowerback 6.78027 6.36967 3.42262
upperback 3.88712 8.69677 -3.19271
thorax 1.27642 4.49433 -5.61849
lowerneck -12.8456 6.01649 0.080863
upperneck 4.5627 7.75456 3.40082
head 3.63907 4.00855 1.66813
rclavicle -4.41302e-014 3.18055e-015
rhumerus 32.8931 49.8177 -86.1974
rradius 41.5452
rwrist 26.7881
rhand -28.5001 11.5905
rfingers 7.12502
rthumb -1.86893 -18.381
lclavicle -4.41302e-014 3.18055e-015
lhumerus 22.7579 25.3123 100.238
lradius 65.6742
lwrist 69.0357
lhand -15.8547 24.1768
lfingers 7.12502
lthumb 10.3403 53.9026
rfemur 8.02069 -16.3869 20.2459
rtibia 27.7609
rfoot -31.2925 -27.6772
rtoes 4.83275
lfemur -20.4382 -9.33942 -19.9331
ltibia 32.6026
lfoot -2.99949 -1.4127
ltoes -10.2423
1691
root 9.54786 17.13 -3.21392 -7.03047 2.88559 0.340506
lowerback 6.83979 6.35639 4.04022
upperback 3.68637 8.71032 -2.93697
thorax 1.0895 4.49794 -5.71274
lowerneck -12.9949 6.2207 0.0845485
upperneck 4.70165 8.03177 3.25649
head 3.71752 4.13927 1.65052
rclavicle -4.03533e-014 -1.90833e-014
rhumerus 34.1487 50.2265 -84.6546
rradius 41.8778
rwrist 27.8332
rhand -28.296 12.0973
rfingers 7.12502
rthumb -1.67183 -17.8759
lclavicle -4.03533e-014 -1.90833e-014
lhumerus 22.5886 26.2191 100.722
lradius 66.1379
lwrist 70.1034
lhand -14.9343 23.8519
lfingers 7.12502
lthumb 11.2281 53.5314
rfemur 7.47255 -15.6056 21.585
rtibia 27.7422
rfoot -30.9123 -27.838
rtoes 4.75373
lfemur -20.9134 -8.71257 -18.633
ltibia 32.9028
lfoot -3.18455 -1.06254
ltoes -9.14522
1692
root 9.54209 17.1266 -3.24219 -6.89439 2.05764 -0.0506578
lowerback 7.23009 6.38811 4.24409
upperback 3.41665 8.77158 -2.86592
thorax 0.621725 4.5101 -5.82407
lowerneck -13.3343 6.25804 -0.0505162
upperneck 5.20441 8.07822 3.40033
head 3.95123 4.169 1.75999
rclavicle 6.48535e-014 7.95139e-016
rhumerus 34.8566 50.3465 -83.5254
rradius 42.2714
rwrist 29.0643
rhand -28.1683 12.6026
rfingers 7.12502
rthumb -1.54843 -17.3716
lclavicle 6.48535e-014 7.95139e-016
lhumerus 22.4737 26.7913 101.207
lradius 66.2559
lwrist 71.0334
lhand -14.7042 24.1771
lfingers 7.12502
lthumb 11.45 53.8444
rfemur 7.10927 -15.0441 22.2346
rtibia 27.6627
rfoot -30.6255 -27.7386
rtoes 4.74864
lfemur -21.3569 -8.13342 -17.9801
ltibia 33.303
lfoot -3.32776 -0.891127
ltoes -9.31688
1693
root 9.5477 17.1274 -3.24736 -6.97007 1.28241 -0.0688213
lowerback 7.42497 6.4396 4.25593
upperback 3.36085 8.84516 -2.90702
thorax 0.475072 4.54195 -5.90554
lowerneck -13.0833 6.08202 -0.223335
upperneck 5.09823 7.87081 3.484
head 3.85758 4.06584 1.78694
rclavicle -4.58696e-014 2.06736e-014
rhumerus 35.8963 50.6048 -82.1302
rradius 42.5571
rwrist 29.7757
rhand -27.8171 12.1714
rfingers 7.12502
rthumb -1.20925 -17.8049
lclavicle -4.58696e-014 2.06736e-014
lhumerus 22.2173 26.9976 101.411
lradius 66.3985
lwrist 72.6503
lhand -15.6611 24.4987
lfingers 7.12502
lthumb 10.5271 54.215
rfemur 7.12765 -14.707 22.1991
rtibia 27.6842
rfoot -30.2831 -27.5185
rtoes 3.83119
lfemur -21.3376 -7.58917 -17.8761
ltibia 33.6333
lfoot -3.5816 -0.680871
ltoes -9.71164
1694
root 9.55812 17.131 -3.23601 -7.12425 0.365901 -0.0836079
lowerback 7.34791 6.48797 4.26349
upperback 3.4416 8.90783 -2.92082
thorax 0.613589 4.57988 -5.90879
lowerneck -12.6706 6.01748 -0.251523
upperneck 4.71926 7.80243 3.47207
head 3.6424 4.02822 1.7494
rclavicle -1.20066e-013 2.70347e-014
rhumerus 37.3357 51.0719 -80.5086
rradius 42.7402
rwrist 29.9726
rhand -27.9847 11.6109
rfingers 7.12502
rthumb -1.37117 -18.3644
lclavicle -1.20066e-013 2.70347e-014
lhumerus 21.9961 27.3707 101.549
lradius 66.5188
lwrist 74.1097
lhand -15.8688 24.1787
lfingers 7.12502
lthumb 10.3268 53.9052
rfemur 7.24082 -14.3447 22.0572
rtibia 27.9009
rfoot -29.9822 -27.2251
rtoes 2.68703
lfemur -20.9803 -6.98803 -17.7968
ltibia 33.7667
lfoot -3.81221 -0.359545
ltoes -9.62696
1695
root 9.56458 17.1291 -3.23512 -7.18045 -0.577537 0.181254
lowerback 7.34004 6.51828 3.91716
upperback 3.43595 8.92351 -3.04083
thorax 0.579561 4.58233 -5.84522
lowerneck -12.5481 6.12573 0.0281819
upperneck 4.68652 7.91535 3.31619
head 3.6222 4.08132 1.65028
rclavicle -5.93372e-014 3.97569e-015
rhumerus 38.5921 51.5365 -79.1178
rradius 42.9484
rwrist 30.3715
rhand -28.0438 11.5569
rfingers 7.12502
rthumb -1.42825 -18.4181
lclavicle -5.93372e-014 3.97569e-015
lhumerus 21.7664 27.8112 101.428
lradius 66.4599
lwrist 75.2958
lhand -15.3857 23.8049
lfingers 7.12502
lthumb 10.7927 53.5076
rfemur 7.16464 -13.8828 21.6819
rtibia 28.139
rfoot -29.759 -26.8432
rtoes 2.18988
lfemur -20.7102 -6.35462 -17.9888
ltibia 33.803
lfoot -3.98706 0.00778973
ltoes -10.7393
1696
root 9.56568 17.1306 -3.24433 -7.12467 -1.44001 0.744352
lowerback 7.44452 6.57431 3.28475
upperback 3.30083 8.95368 -3.29462
thorax 0.32822 4.58073 -5.79134
lowerneck -12.4227 6.21934 0.330241
upperneck 4.8131 8.00595 3.11773
head 3.66191 4.1222 1.53784
rclavicle 4.22914e-014 -1.51076e-014
rhumerus 39.4158 51.8077 -78.0808
rradius 43.1668
rwrist 31.0633
rhand -27.3834 11.8784
rfingers 7.12502
rthumb -0.790378 -18.0998
lclavicle 4.22914e-014 -1.51076e-014
lhumerus 21.5203 28.126 101.291
lradius 66.3396
lwrist 76.5372
lhand -15.3925 23.6882
lfingers 7.12502
lthumb 10.7862 53.3913
rfemur 6.90319 -13.3361 21.0891
rtibia 28.3331
rfoot -29.4891 -26.5208
rtoes 1.85412
lfemur -20.6538 -5.71886 -18.4705
ltibia 33.8519
lfoot -4.11175 0.377587
ltoes -11.9808
1697
root 9.56312 17.1367 -3.24902 -7.04943 -2.35896 0.893569
lowerback 7.39774 6.68259 3.17361
upperback 3.23354 9.08774 -3.46604
thorax 0.312114 4.64711 -5.91182
lowerneck -12.2531 6.19465 0.376617
upperneck 4.73261 7.97009 3.11782
head 3.60288 4.10451 1.51678
rclavicle 1.08835e-014 2.3059e-014
rhumerus 40.6387 51.9387 -76.6277
rradius 43.3379
rwrist 31.2763
rhand -26.8561 11.8571
rfingers 7.12502
rthumb -0.281074 -18.1224
lclavicle 1.08835e-014 2.3059e-014
lhumerus 21.4381 28.2366 101.393
lradius 66.1575
lwrist 77.5522
lhand -15.1393 23.1185
lfingers 7.12502
lthumb 11.0304 52.8087
rfemur 6.62105 -12.7571 21.0069
rtibia 28.5542
rfoot -29.4185 -26.1591
rtoes 1.95408
lfemur -20.655 -5.03694 -18.4483
ltibia 33.9474
lfoot -4.21588 0.640338
ltoes -11.6745
1698
root 9.56534 17.1385 -3.24844 -7.02739 -3.4453 0.470657
lowerback 7.20421 6.76616 3.65359
upperback 3.35177 9.23027 -3.42659
thorax 0.630801 4.73753 -6.09766
lowerneck -12.3254 6.14525 0.330972
upperneck 4.50206 7.91618 3.09663
head 3.53548 4.07542 1.50927
rclavicle 3.10104e-014 -2.38542e-015
rhumerus 42.3498 52.113 -74.757
rradius 43.4971
rwrist 31.3876
rhand -26.4915 11.1924
rfingers 7.12502
rthumb 0.071072 -18.7873
lclavicle 3.10104e-014 -2.38542e-015
lhumerus 21.6643 28.4574 101.739
lradius 66.0128
lwrist 78.4518
lhand -14.6763 22.8843
lfingers 7.12502
lthumb 11.4769 52.5501
rfemur 6.43456 -12.1467 21.5285
rtibia 28.7475
rfoot -29.3915 -25.7748
rtoes 2.49699
lfemur -20.6023 -4.19529 -17.8095
ltibia 34.1005
lfoot -4.4103 0.826953
ltoes -11.2742
1699
root 9.56996 17.1355 -3.25401 -7.06676 -4.51457 0.123666
lowerback 7.06971 6.78174 4.00745
upperback 3.55754 9.2728 -3.3803
thorax 0.975245 4.77949 -6.20581
lowerneck -12.6686 6.19639 0.4256
upperneck 4.506 7.96923 3.01696
head 3.61033 4.10097 1.48651
rclavicle -1.59823e-013 2.70347e-014
rhumerus 44.2409 52.3097 -72.7701
rradius 43.6791
rwrist 31.5271
rhand -25.8747 10.7427
rfingers 7.12502
rthumb 0.66678 -19.236
lclavicle -1.59823e-013 2.70347e-014
lhumerus 22.2371 28.8014 102.215
lradius 65.7771
lwrist 79.2096
lhand -15.0494 23.3403
lfingers 7.12502
lthumb 11.1171 53.0258
rfemur 6.33653 -11.5105 21.9481
rtibia 28.8397
rfoot -29.3407 -25.3858
rtoes 2.94348
lfemur -20.5179 -3.3275 -17.2785
ltibia 34.3012
lfoot -4.60979 1.01753
ltoes -11.8238
1700
root 9.5723 17.1317 -3.26787 -7.08416 -5.49978 0.271406
lowerback 6.99093 6.816 3.90035
upperback 3.70108 9.31109 -3.51274
thorax 1.17965 4.80857 -6.26272
lowerneck -12.8816 6.24658 0.532429
upperneck 4.61237 8.01106 3.04257
head 3.69267 4.12625 1.49329
rclavicle 8.43841e-014 -2.46493e-014
rhumerus 46.3375 52.5049 -70.5732
rradius 43.711
rwrist 31.1092
rhand -25.4534 10.8974
rfingers 7.12502
rthumb 1.07367 -19.0796
lclavicle 8.43841e-014 -2.46493e-014
lhumerus 22.6624 28.9219 102.451
lradius 65.3451
lwrist 79.8233
lhand -15.4002 23.512
lfingers 7.12502
lthumb 10.7788 53.2155
rfemur 6.1501 -10.82 21.8668
rtibia 28.9684
rfoot -29.1297 -25.1982
rtoes 2.70088
lfemur -20.4571 -2.63228 -17.2647
ltibia 34.4362
lfoot -4.746 1.31219
ltoes -12.4084
1701
root 9.57986 17.1358 -3.27175 -7.01187 -6.52891 0.579221
lowerback 6.81277 6.87638 3.62121
upperback 3.71462 9.37127 -3.66714
thorax 1.28111 4.83853 -6.24657
lowerneck -12.9629 6.27293 0.501015
upperneck 4.65275 8.03912 3.17298
head 3.71554 4.14653 1.5489
rclavicle -6.52014e-014 1.27222e-014
rhumerus 47.6889 52.7175 -69.1299
rradius 43.7196
rwrist 30.7278
rhand -25.0606 11.4314
rfingers 7.12502
rthumb 1.45302 -18.5434
lclavicle -6.52014e-014 1.27222e-014
lhumerus 22.5303 28.947 102.249
lradius 65.0157
lwrist 80.5849
lhand -15.1586 23.4976
lfingers 7.12502
lthumb 11.0118 53.1888
rfemur 5.86005 -10.1955 21.5423
rtibia 29.2054
rfoot -28.7807 -24.9184
rtoes 2.24627
lfemur -20.3712 -1.99849 -17.438
ltibia 34.4276
lfoot -4.94552 1.74971
ltoes -12.1447
